<?xml version="1.0" encoding="UTF-8"?><svg id="Layer_0_Image" data-name="Layer 0 Image" xmlns="http://www.w3.org/2000/svg" viewBox="0 0 800 600" x="0px" y="0px" width="800px" height="600px" version="1.1" xmlns:xlink="http://www.w3.org/1999/xlink"><title>1</title><path d="M265.771,151.714c15.874-31.771,35.334-61.226,55.9-89.889,2.351.6.286,2.067,1.124,2.991,1.333.615,2.815-2.6,4.529.26,1.575,2.624.64,4.6-.468,6.631-5.837,10.711-14.269,19.759-19.359,31.055-1.74,3.862-2.5,8.594-6.8,11.6-2.644,1.852-2.022,6.533-4.357,9.617-1.462,1.931-2.275,4.632-3.9,6.812a57.541,57.541,0,0,0-11.283,29.276c-.192,1.944-1,3.7-2.8,3.762-4.912.165-9.79,2.2-14.6-2.1-3.5-3.12-3.82-5.946-2.831-9.709,2.383-9.063,7.11-17.062,11.749-25.053,5.428-9.349,11.591-18.256,17.339-27.4,7.732-12.3,16.387-23.9,24.6-35.841.781-1.134,1.53-3.479,3.243-2.448,1.29.777-.069,2.636-.805,3.765-4.641,7.123-9.61,14.005-14.7,20.826a205.34,205.34,0,0,0-13.039,20.8c-6.583,11.468-13.835,22.554-19.79,34.379C267.821,144.425,266.141,147.84,265.771,151.714Z"/><path d="M240.679,288.828c-2.983,2.4-5.139-1.334-6.083-2.092-2.551-2.049-6.55.066-7.546-2.361-1.508-3.672-4.76-6.78-3.412-11.7,2.608-9.517,6.561-18.476,10.235-27.561,2.664-6.587,5.2-13.238,9.094-19.259,1.735-2.685,3.73-5.053,6.674-6.4,3.021-1.385,5.673-1.484,8.581,1,2.153,1.842,4.929,3.053,6.922,5.217,1.9,2.059,3.4,4.212,1.164,7.018-1.57,1.967-1.286,4.547-2.077,6.792-3.178,9.015-4.388,18.724-9.487,27.06-3.782,6.183-6.576,12.835-9.491,19.438C244.418,287.872,243.61,290.157,240.679,288.828Z"/><path d="M428.724,221.31c-.7,1.581-1.153,2.6-1.589,3.58.519.677,1,.274,1.511.129,1.056-.3,1.418-2.321,2.7-1.512,1.546.977-.444,2.148-.324,3.306,1.692.392,2.142-1.7,3.524-1.756,2.14,3.291,1.017,5.942-.975,8.894A109.452,109.452,0,0,0,420.3,259.636c-1.193,3.485-5.657,5.189-5.743,9.232-.109,5.13-2.5,9.585-5.195,13.254-4.647,6.336-5.64,13.789-8.406,20.676-.778,1.938.288,4.324-1.626,5.912-.618.512-1.589,1.681-1.993.7-1.383-3.367-4.081-1.744-6.313-2.3-4.144-1.037-4.96-5.1-5.364-8.675-.637-5.633.989-11.08,3.274-16.1,8.749-19.224,18.923-37.668,31.512-54.681C422.364,225.054,424.084,221.8,428.724,221.31Z"/><path d="M370.755,144.974c-.96,2.991-1.888,6.124-2.966,9.2-6.837,19.523-15.7,38.134-25.31,56.421-3.683,7.011-7.927,13.739-10.712,21.22-.8,2.142-2.23,3.834-4.786,1.554a6.835,6.835,0,0,0-2.294-1.063c-5.3-1.877-7.372-5.941-5.711-11.456,1.7-5.658,4.857-10.613,7.912-15.579,12.925-21.011,25.084-42.416,34.364-65.343,1.176-2.905,1.517-2.9,3.58-.69a1.4,1.4,0,0,0,1.006.385C369.686,139.283,370.037,142.1,370.755,144.974Z"/><path d="M241.152,364.257c-3.524,8.672-9.287,15.309-12.644,23.161-3.394,7.939-7.5,15.59-9.634,24.063,3.09-6.794,6.161-13.595,9.273-20.378,3.57-7.784,8.1-15.016,12.55-22.314,2.234-3.662,4.743-3.476,7.257-1.459,2.456,1.97,2.966,5.288.653,7.6-4.712,4.713-7.362,10.732-9.083,16.646-3,10.3-8.265,19.844-9.852,30.6-.366,2.479-2.161,4.592-2.529,7.354-.414,3.107-.575,5.768.964,8.662.9,1.682,3.1,3.895,1.141,5.771-1.6,1.536-3.945,2.662-6.613,1.263-1.018-.533-2.5-.184-3.773-.227-7.442-.252-11.833-5.1-10.724-12.6,1.487-10.063,5.268-19.476,9.259-28.77,5.229-12.18,10.916-24.125,18.656-34.972C237.2,367.052,238.152,365.284,241.152,364.257Z"/><path d="M444.01,459.162c-10.076-.02-13.112-4.431-9.7-12.788,2.665-6.532,7.2-11.917,11.577-17.311,10.22-12.59,20.855-24.818,32.177-36.453,2.77-2.846,6.132-3.863,9.583-4.919,1.205-.368,3.893-1.092,3.789-.043-.212,2.147,1.942,4.1,0,6.394-8.661,10.256-16.39,21.236-24.4,32-3.531,4.746-7.437,9.22-10.836,14.054-2.3,3.27-4.649,6.8-2.317,11.206.278.526.134,1.905-.114,1.988C449.793,454.616,447.388,458.853,444.01,459.162Z"/><path d="M547.009,231.005c5.174-5.813,8.393-12.883,13.5-18.659a59.69,59.69,0,0,0,4.59-5.024c2.122-3.048,4.3-.723,5.707.236a3.564,3.564,0,0,1,.539,5.139A145.343,145.343,0,0,0,556.548,239.5c-2.872,6.634-7.638,12.446-8.633,20.167-.377,2.924-2.375,6.3-3.483,9.57-1.482,4.376-4.523.752-6.871.593-.371-.025-.7-1.114-1.037-1.109-1.444.022-2.295,3.7-3.988,1.148-2.3-3.464-4.75-6.732-3.142-11.853,2.552-8.129,6.473-15.463,10.764-22.66,5.818-9.758,11.184-19.858,19.464-27.91.61-.593,1.17-1.245,1.822-1.787.674-.56,1.579-1.039,2.3-.35.919.877.433,1.938-.372,2.6-7.021,5.749-10.518,14.04-15.438,21.3A16.4,16.4,0,0,0,547.009,231.005Z"/><path d="M373.816,375.414c2.165-2.042,4.609-3.866,6.422-6.183,2.115-2.7,4.47-3.3,7.449-2.118,1.772.7,1.395,2.561,1.223,3.745a7.819,7.819,0,0,1-5.19,6.482c-.705.26-1.767-.274-1.764,1,.015,6.223-5.443,9.538-7.789,14.523-.72,1.529-2.061,2.98-3,4.546-2.76,4.578-5.015,9.551-10.861,11.3-1.362.408-3.521,1.627-2.786,3.695,2.245,6.313-2.176,10.529-4.685,15.21-4.123,7.689-9.353,14.753-13.177,22.63-.431.888-.7,2.152-1.938,1.844-1.548-.386.5-1.761-.571-2.571-1.93,1.029-3.625,3.8-6.316.529-.96-1.168-2.369.807-3.06,2.047-.526.943-1.1,1.833-2.288,1.138-1.432-.839-.2-1.716.181-2.487,6.89-14.043,15.4-27.1,24.236-39.97l23.333-33.99Z"/><path d="M458.47,336.77c-1.484.433,2.3-4.726-1.745-1.559-.109.086-.321.216-.37.177-2.666-2.068-5.014-1.953-7.453.576-.639.664-5.608-4.9-5.714-6.548a13.573,13.573,0,0,1,1.558-7,86.942,86.942,0,0,1,25.789-30.721c5.366-4.042,10.995-3.6,16.614-.591,3.017,1.617,3,3.562.494,5.982a107.14,107.14,0,0,0-7.517,8.052c-2.729,3.237-5.013,6.791-8.017,9.871-3.943,4.042-5.3,9.779-8.17,14.578C462.353,332.234,460.956,334.923,458.47,336.77Zm-9.334-11.2c4.769-7.38,9.575-14.751,14.883-21.786C457.965,308.319,450.665,318.856,449.136,325.565Z"/><path d="M583.481,344.145c-.628,2.141-1,3.429-1.581,5.394.955-.741,1.54-.965,1.716-1.367,1.427-3.264,4.051-2.42,6.118-1.364a4.5,4.5,0,0,1,1.9,5.88,67.71,67.71,0,0,1-5.149,10.429c-2.811,4.531-5.989,8.91-7.9,13.858-2,5.169-4.917,10.2-3.669,16.274.589,2.869-1.806,4.553-4.426,3.379a8.273,8.273,0,0,0-4.112-.5c-8.917.445-13.523-5.879-10.058-14.394,4.885-12,12.766-22.147,20.976-32.014C578.862,347.839,579.942,345.329,583.481,344.145Z"/><path d="M258.385,531.571c-.054,3.2,2.651,4.76,3.023,7.318-3.951.54-6.44-1.6-7.3-6.015-.939-4.791.559-9.2,2.891-13.024,4.961-8.128,9.1-16.725,16.03-23.743,2.713-2.747,4.588-7.189,7.224-10.512,7.518-9.474,15.364-18.687,23.116-27.974a20.241,20.241,0,0,1,5.533-4.648,2.613,2.613,0,0,1,3.18.052c1.091.877.97,2,.361,3.078a36.25,36.25,0,0,1-2.85,4.745c-10.472,13.307-21.229,26.4-31.407,39.924a62.9,62.9,0,0,0-9.194,17.652c-.986,2.924.071,6.131.4,9.205.09.837,1.258,1.976-.223,2.6-2.845,1.207-5.228,2.4-2.725,6.108.569.843-.724,1.288-1.625,1.309-1.609.037-3.463.011-3.652-1.988C260.994,533.827,259.954,532.893,258.385,531.571Z"/><path d="M326.582,313.046c-.923-.655-1.442-.78-1.845.2-1.467,3.572-2.692,7.295-4.609,10.614-1.159,2-.91,6.14-5.35,4.934-.706-.192-.562.7-.242,1.2.749,1.176.285,2.041-.527,3.031a6.937,6.937,0,0,0-1.405,5.87c.666,4.271-2.305,6.352-6.211,4.6-.47-.21-1.3-.923-1.345-.628-1,6.959-4.77-2.268-6.309,1.1a5.1,5.1,0,0,1-1.829-3.693c-.3-3.46,1.114-6.386,2.719-9.259,6.08-10.884,14.792-19.57,23.725-28.027,2.152-2.037,5.394-2.147,8.18-2.968,1.637-.482,2.6.875,3.223,2.171.848,1.775-.087,1.962-1.541,1.486-.192,3.187-2.276,5.393-3.986,7.813C328.477,312.562,327.989,313.85,326.582,313.046Z"/><path d="M438.89,176.886c-1.247,1.8-.357,4.884-4.287,5.133-2.841.18-2.328-1.193-2.33-2.655-2.443.219-1.465,3.122-3.629,3.7-.891-3.926.557-7.686.381-11.458a2.429,2.429,0,0,0,.054-.367c3.036-2.6,3.736-6.5,5.416-9.85.694-1.383.938-3.033,1.79-4.287,6.857-10.088,12.435-20.98,19.821-30.753,5.787-7.659,10.914-15.815,17.1-23.193a19.363,19.363,0,0,1,5.729-5.334c-2.355,4.261-4.146,7.5-5.936,10.744.044-.128.083-.26.119-.4-4.719,3.736-6.642,9.5-10.681,13.808,1.381,1.169,1.795-.05,2.459-.187,1.135-.235,1.836.477,2.276,1.455.216.479.648,1.184-.116,1.38-3.39.871-2.577,3.683-2.676,5.912-.109,2.466-1.449,3.82-3.375,4.921-2.969,1.7-4.735,4.1-4.416,7.693l-1.561,2.313c-3.245,1.59-7.886,9.339-7.556,12.615-1.852.095-2.582,3.6-5.1,1.679-.747-2.073-1.17-3.055-3.11-.474-2.45,3.262-2.056,7.7-5.013,10.614a.869.869,0,0,0,.193,1.437.989.989,0,0,0,1.63-.639c.52-3.323,3.173-5.659,3.977-8.821.34-1.334.7-2.5,2.442-2.237,1.059,6.158-3.681,10.364-5.307,15.622-.215.7-2.828-1.181-1.88,1.163A2.208,2.208,0,0,0,438.89,176.886Zm14.87-38.794-1.052-.781c-2.017,3.2-4.054,6.379-6.022,9.6-.23.377-.679,1.057,0,1.467.474.286,1.286.369,1.447-.232C449.162,144.33,452.747,141.9,453.76,138.092Z"/><path d="M535.936,461.33c-.87,2.4-.2,4.556.57,6.632.4,1.093.707,1.921-.6,2.374-1.195.415-1.929-.425-2.353-1.336a10.176,10.176,0,0,1-.171-7.125c2.447-8.451,7.033-15.786,12.689-22.474,1.678-1.984,3.669-3.78,4.983-5.98,2.389-4,6.456-5.142,10.333-6.407,1.81-.591,2.157,1.837,2.529,3.144a3.019,3.019,0,0,1-1,2.635c-6.444,4.214-7.483,12.068-11.854,17.714-1.44,1.86-.779,5.634-2.641,8.105-1.47,1.951-2.261,4.392-5,5.321-1.576.536-.382,2.566-1.094,3.773-.366.618-.591,1.363-1.369,1.464s-1.753-.561-1.612-1.058C540.286,464.783,536.351,463.934,535.936,461.33Z"/><path d="M373.816,375.414l-.586,1.374c-5.659,4.987-10.225,11-14.656,16.987-6.094,8.233-11.607,16.931-16.914,25.7-4.492,7.426-10.222,14.1-13.373,22.371a16.953,16.953,0,0,1-7.1,8.714c-.872-5.055,2.348-8.294,4.2-11.857,4.889-9.39,11.064-18,17.138-26.631,10.957-15.579,21.252-31.685,34.908-45.185.782-.773,1.407-1.834,3.287-1.261C379.493,369.718,375.57,371.865,373.816,375.414Z"/><path d="M539.66,315.766c-1.68,1.232.3,4.559-2.273,4.016-2.194-.463-1.4-3.138-.849-4.835a39.278,39.278,0,0,1,19.913-23.386c1.479-.772,3.623-1.95,4.991.236,1.213,1.938-.665,3.117-1.736,4.329-4.493,5.089-8.754,10.286-9.875,17.3-.281,1.762-1.71,2.4-3.167,2.994a3.8,3.8,0,0,0-1.38.959C542.433,320.621,540.283,320.963,539.66,315.766Z"/><path d="M451.686,127.138c-.471,5.237-4.946,8.126-7.381,12.2-1.8,3.018-3.271,6.443-6.154,8.84-.717.6-1,1.912-2.186,1.246a1.743,1.743,0,0,1-.5-2.612c3.827-6.067,7.548-12.208,12.121-17.765,1.079-1.311,2.782-1.275,4.22-1.807Z"/><path d="M451.808,127.243c-.535-1.161-1.156-2.238-.184-3.561,5.512-7.5,10.91-15.091,17.3-21.9.493-.526.767-1.776,1.883-1,.708.5.533,1.264.048,1.876-6.246,7.9-12.307,15.929-17.981,24.251-.161.235-.782.155-1.187.222Z"/><path d="M429.079,171.236a2.429,2.429,0,0,1-.054.367c-.754,1.909-2.4,3.455-2.26,5.736.05.813.158,1.968-1.079,1.86-1.107-.1-.958-1.122-.86-2,.867-7.785,3.512-15.063,6.461-22.232.506-1.229,1.99-2.551,3.343-1.92,1.6.747.393,2.331-.175,3.26C431.629,160.93,430.4,166.092,429.079,171.236Z"/><path d="M473.113,108.167c-.036.136-.075.268-.119.4,1.8-1.835,4.943-2.377,5.247-5.761.05-.558,1.471-2.6,2.909-1.34,1.367,1.2-.092,2.461-.884,3.21a28.383,28.383,0,0,0-8.033,12.342c-1.374-1.6-3.425-2.651-.695-4.6C473.006,111.37,472.419,109.522,473.113,108.167Z"/><path d="M455.023,145.462l1.561-2.313,1.877-1.476.658.457-4.318,7.7-.922-.3Z"/><path d="M440.557,174.67c-.838-2.947,1.31-4.905,2.436-7.177,1.105-2.23,2.392-4.371,3.6-6.55a3.443,3.443,0,0,1-.292,3.177C444.32,167.6,442.462,171.148,440.557,174.67Z"/></svg>