<?xml version="1.0" encoding="UTF-8"?><svg id="Layer_0_Image" data-name="Layer 0 Image" xmlns="http://www.w3.org/2000/svg" viewBox="0 0 800 600" x="0px" y="0px" width="800px" height="600px" version="1.1" xmlns:xlink="http://www.w3.org/1999/xlink"><title>1</title><path d="M395.585,219.332c-5.345,4.7-12.417,5.242-18.733,7.372-20.322,6.852-40.222,14.631-59.323,24.392-5.919,3.024-11.766,5.7-18.763,4.092-1.7-.391-6.471-1.4-2.675,3.418,1.6,2.028-.467,2.39-1.59,3.057-10.531,6.256-20.685,13.371-31.8,18.312-4.738,2.1-7.238,5.865-11.126,8.135-11.78,6.878-20.967,16.938-31.721,25.064-6.5,4.909-11.669,11.568-17.66,17.668-1.672-1.84,1.6-3.277.082-4.491-1.332-1.069-3.427-.527-3.935.546-2.042,4.321-7.777,6.874-6.185,12.972a3.506,3.506,0,0,1-3.371,4.5c-3.012-.354-5.133-1.324-3.2,3.03.169.38-.06.936-.1,1.41-9.612-1.325-5.534,7.824-8.73,11.389-8.377,9.341-14.6,20.282-22.9,29.826-5.974,6.87-10.6,15.931-14.572,24.89-2.785,6.284-6.165,12.9-10.774,18.282-2.588,3.021-5.064,5.989-6.265,9.664-1.63,4.984-5.595,4.572-9.433,4.968-4.76.492-3.05-3.164-3.572-5.379-.946-4.013-5.324-3.9-7.813-5.578-10.663-7.171-9.508-17.593-8.313-27.4,1.93-15.844,8.715-30.352,15.318-44.749,20.962-45.7,51.335-84.327,89.689-116.523,35.9-30.14,76.339-53,119.6-70.867,18.1-7.478,36.933-12.885,55.466-19.126,15.128-5.094,30.218-10.033,45.7-13.834,25.212-6.191,50.563-11.643,76.262-15.515,42.679-6.431,85.465-11.379,128.72-9.852a246.493,246.493,0,0,1,66.741,11.776,34.134,34.134,0,0,1,10.452,5.132c2.3,1.75,5.616,3.259,4.889,6.595-.675,3.1-3.066,5.48-7.835,5.533,6.928,2.979,13.432,5.524,6.691,13.592-1,1.2-.076,1.975.429,3.106,2.621,5.871.643,9.587-5.806,11.391,1.182,1.3,4.576.4,3.842,3.362-.5,2.033-2.752,1.794-4.384,1.684-17.729-1.2-35.479-1.2-53.237-1.335a860.881,860.881,0,0,0-95.518,4.336c-29.23,3.034-58.194,7.436-87.037,12.771a247.2,247.2,0,0,0-33.544,9.161,895.873,895.873,0,0,1,268.385-21.53c-2.725,3.1-6.231,1.9-9.271,1.851-74.466-1.253-148.556,2.068-221.887,16.437-21.676,4.247-42.9,10.118-64.2,15.751a22.535,22.535,0,0,1-7.2.9c-1.977-4.791,3.191-3.24,4.176-3.59,8.671-3.079,17.594-5.448,27.894-8.452-9.934-1.192-64.379,16.253-68.714,21.809,6.044-3.691,12.825-5.4,19.462-7.315C383.8,220.35,389.242,216.457,395.585,219.332Zm197.872-83.851c21.308.421,42.427,1,63.307,4.7,7.895,1.4,15.735,3.111,23.62,4.572,1.786.331,4.469,1.5,5.175-.761.848-2.716-2.323-2.33-3.886-3.1a6.348,6.348,0,0,0-1.413-.356C651.56,134.071,622.518,133.2,593.457,135.481Zm96.374,39.85c-14.2-4.089-89.139-4.972-104.63-1.474C620.378,174.653,655.136,172.286,689.831,175.331Zm-19.4-17.609a253.942,253.942,0,0,0-56.607-3.2Z"/><path d="M616.03,282.876c3.5,1.917,6.431,3.418,9.252,5.11,1.8,1.081,4.186,1.906,3.633,4.805-.491,2.574-2.746,2.354-4.573,2.805a3.313,3.313,0,0,0-2.665,2.186c7.45,2.155,7.589,3.151,4.117,10.088-.844,1.687-5.117,3.579-1.06,7.254,1.941,1.757-1.828,2.256-3.451,2.371-9.766.694-19.335-1.21-28.708-3.332-13.105-2.968-26.382-4.844-39.616-6.717-30.265-4.283-60.4-1.6-90.478,3.052a221,221,0,0,0-53.574,15.307c24.278-5.134,47.893-13.768,74.415-14.311-3.243,3.858-6.649,3.253-9.407,3.6A325.53,325.53,0,0,0,392.9,336.07c-1.145.458-2.6,2.3-3.549.08-2.46-5.725-6.748-1.791-8.915-.8-3.187,1.455-8.877,2.322-6.486,9.367-8.961-7.28-12.794,3.7-19.836,3.11,1.822,4.066,4.851.468,7.149,2.775-5.343,3.1-10.745,5.863-15.716,9.256-3.135,2.139-1.8-4.807-5.8-1.931-5.491,3.949-12.5,5.767-18.074,9.63-2.586,1.792-4.7-.459-7.185,1.419,4.641,3.316,3.905,5.129-1.218,7.328a53.548,53.548,0,0,0-20.731,15.55c-3.828,4.713-9.7,7.4-13.359,12.444-1.067,1.474-2.565.577-4,.249-6.181-1.415-8.753.637-8.989,7-.221,5.93-.723,11.564-6.262,15.583a5.426,5.426,0,0,1-4.214,1.319c-4.547-.256-7.757,6.432-6.079,10.938,2.193,5.891-.258,12.417-3.15,16.393-4.789,6.586-3.066,13.486-4.159,20.16-.563,3.436-1.888,4.374-4.785,5.095-5.925,1.475-5.052-4.267-6.585-6.682-1.318-2.078-.348-5.12-4.644-4.152-2.111.475-3.15-1.831-3.713-3.817-1.469-5.18-5.194-10.411.375-15.5.085-.077,3.09-3.534-1.363-3.919-1.442-.125-2.376-3.519-1.789-5.736,2.719-10.268,2.1-21.219,6.595-31.16,1.038-2.295.75-5.094,4.458-3.272.848.416,2.128,1.064,2.456-.153.274-1.012-.248-3.2-.746-3.31-5.211-1.1-3.1-4.585-1.322-6.065,4.976-4.143,4.693-10.961,8.576-15.407,6.154-7.045,10.432-15.579,19.633-20.275,3.325-1.7,5.137-7.99,8.61-11.8,9.467-10.394,21.018-18.23,31.819-26.921,8.43-6.783,17.934-12.27,27.083-18.164,21.247-13.687,44.059-23.845,67.645-32.444,29.3-10.683,59.874-16.5,90.673-19.717,33.355-3.486,66.907-2.828,99.831,5.256,12.822,3.148,25.293,7.319,35.93,15.555,1.982,1.536,5.644,2.512,4.575,5.791-.939,2.881-4.182,2.768-6.928,2.684C618.108,281.805,617.483,282.286,616.03,282.876ZM449.622,272.588c7.3-.728,14.6-2.055,21.9-2.028,8.318.031,16.451-1.678,24.983-1.244,6.506.331,14.223-.607,21.277-.849,24.243-.831,48.065,3.641,71.885,7.515a58.784,58.784,0,0,1,11.735,3.582c1.194.465,1.93,2.3,3.611,1.323a2.25,2.25,0,0,0,.918-1.732c-.12-2.17-1.99-2.56-3.588-3.011-6.91-1.952-14.684-2.448-20.574-6.044-9.462-5.777-19.656-3.074-29.309-5.165-6.924-1.5-14.7.912-20.762-1.785-9.111-4.055-17.622-1.436-26.466-1.406-8.471.028-16.558,4.361-24.291,3.844C469.456,264.819,459.405,266.96,449.622,272.588Zm117.606,30.058c-42.354-8.377-84.125-4.278-125.614,5.876C483.156,299.517,525.09,298.887,567.228,302.646ZM464.945,287.474c21.587-1.57,43.071-4.118,64.738-4.052A168.138,168.138,0,0,0,464.945,287.474ZM419.25,277.191c6.832,3.907,12.673-2.734,19.133-.776,1.064.322,2.275-1.023,2.142-2.37-.154-1.566-1.553-3.178-2.84-2.473C432,274.684,424.8,272.612,419.25,277.191Z"/><path d="M600.626,367.338c-1.409,1.917-3.044,2.279-4.665,2.736-1.919.54-5.253-.605-5.207,2.519.047,3.238,3.264,1.9,5.23,2.192.718.107,1.488-.07,2.186.093,3.1.724,4.5,2.09,1.484,4.717-.636.554-2.389,1.458-1.4,1.711,8.758,2.256,1.088,6.458,1.276,9.637.392,6.615-5.795,5.391-9.173,7.424-9.4,5.66-20.952,6.554-29.815,13.764-3.471,2.824-7.27.531-9.625-3.195-4.728,8.726-14.155,8.978-21.974,11.714-15.731,5.5-33.2,7.745-47.2,16-14.2,8.377-29.711,10.791-44.248,16.815l-14.879.87a62.738,62.738,0,0,0-6.185,2.051c-10.712,4.786-21.549,9.157-33.326,10.546-2.45.289-5.666,2.643-4.194-3.565.571-2.407-5.275-6.6-8.578-9.548-1.559-1.394-3.586-2.67-2.494-4.606,3.764-6.668,4.363-14.948,12.549-19.341a461.538,461.538,0,0,1,65.149-29.025c17.87-6.289,35.946-11.776,54.062-17.2a420.086,420.086,0,0,1,44.346-10.68c14.971-2.767,29.623-7.277,44.84-9.151A13.993,13.993,0,0,1,600.626,367.338Z"/><path d="M617.416,321.156c-18.917.524-37.17-3.486-55.458-7.258q.134-.9.269-1.8Z"/><path d="M555.534,313.26l-40.818-2.068C528.545,307.794,542.137,309.971,555.534,313.26Z"/></svg>